#!OML:ASF Y:\EmotionMaleHayes\Project 1\Capture day 1\Session 1\Male1.ASF
:FULLY-SPECIFIED
:DEGREES
346
root -19.662 17.2483 -1.05262 -11.8287 73.9406 -15.1979
lowerback 8.7625 2.98475 -12.0853
upperback 5.01751 3.33169 -4.85309
thorax 0.0347311 1.61789 1.36791
lowerneck -25.6722 4.64314 5.10349
upperneck 20.579 2.65427 7.93834
head 10.9012 2.74878 2.53577
rclavicle 0 2.22639e-014
rhumerus -57.6597 3.67317 -87.1788
rradius 51.2257
rwrist -7.6451
rhand -7.75125 -33.3368
rfingers 7.12502
rthumb 18.1482 -62.5101
lclavicle 0 2.22639e-014
lhumerus -37.036 -25.0098 83.1208
lradius 44.8408
lwrist 5.97359
lhand -21.2587 -21.8716
lfingers 7.12502
lthumb 5.12454 8.04648
rfemur 3.56133 -11.1248 10.9904
rtibia 7.49627
rfoot -13.4329 -9.84186
rtoes 12.8532
lfemur 5.47355 1.39583 -15.7718
ltibia 9.94508
lfoot -18.7393 10.5312
ltoes -8.50311
347
root -19.6119 17.2439 -1.04739 -12.5001 74.2351 -15.7525
lowerback 8.64839 2.83224 -11.9665
upperback 5.14479 3.17183 -4.703
thorax 0.246142 1.52471 1.48673
lowerneck -25.7299 4.68664 5.20392
upperneck 20.6051 2.69205 7.8399
head 10.9235 2.76189 2.49277
rclavicle 1.74931e-014 -6.36111e-014
rhumerus -57.7236 3.55046 -87.0001
rradius 50.9682
rwrist -7.55899
rhand -7.58738 -33.4754
rfingers 7.12502
rthumb 18.3058 -62.6341
lclavicle 1.74931e-014 -6.36111e-014
lhumerus -36.0667 -24.9074 83.458
lradius 45.3727
lwrist 4.92481
lhand -21.592 -23.3254
lfingers 7.12502
lthumb 4.80269 6.60021
rfemur 3.40839 -11.0843 11.1499
rtibia 7.4489
rfoot -13.4722 -10.0225
rtoes 12.8923
lfemur 5.8607 1.28918 -15.7024
ltibia 9.76087
lfoot -18.7251 10.4798
ltoes -9.37914
348
root -19.5574 17.2395 -1.04151 -13.3585 74.6086 -16.5111
lowerback 8.64445 2.64636 -11.7185
upperback 5.16318 2.94406 -4.6103
thorax 0.295345 1.41125 1.47297
lowerneck -25.6827 4.71 5.36427
upperneck 20.6627 2.69445 7.71565
head 10.9415 2.76061 2.4228
rclavicle 1.66979e-014 -2.8625e-014
rhumerus -57.8688 3.23057 -86.8055
rradius 50.5894
rwrist -7.23275
rhand -7.22518 -33.3993
rfingers 7.12502
rthumb 18.6542 -62.5248
lclavicle 1.66979e-014 -2.8625e-014
lhumerus -35.3714 -24.7802 83.7493
lradius 46.1852
lwrist 4.31287
lhand -21.4488 -24.8425
lfingers 7.12502
lthumb 4.94103 5.07984
rfemur 3.33259 -11.4201 11.2409
rtibia 7.38308
rfoot -13.4459 -9.97756
rtoes 12.9892
lfemur 6.19567 1.09475 -15.6146
ltibia 9.69094
lfoot -18.6493 10.4772
ltoes -11.1498
349
root -19.5176 17.23 -1.03369 -12.1371 73.9696 -15.3663
lowerback 8.31284 2.81127 -11.9451
upperback 5.056 3.17855 -4.56227
thorax 0.32709 1.51979 1.63577
lowerneck -25.6352 4.74406 5.36495
upperneck 20.5357 2.77315 7.6248
head 10.8839 2.77771 2.39555
rclavicle -3.89618e-014 3.18055e-014
rhumerus -58.0028 3.0391 -86.595
rradius 50.3457
rwrist -6.96583
rhand -6.78648 -33.2914
rfingers 7.12502
rthumb 19.0762 -62.3759
lclavicle -3.89618e-014 3.18055e-014
lhumerus -34.4926 -24.6859 84.0958
lradius 47.0234
lwrist 4.2676
lhand -20.2928 -25.6119
lfingers 7.12502
lthumb 6.05713 4.28152
rfemur 2.29806 -11.5017 11.1684
rtibia 8.08596
rfoot -13.0859 -9.23721
rtoes 12.759
lfemur 6.48802 1.29098 -15.8729
ltibia 9.39648
lfoot -18.9646 10.5643
ltoes -9.40458
350
root -19.4583 17.2299 -1.02198 -11.7176 74.6471 -14.7802
lowerback 8.09643 2.58828 -12.1793
upperback 5.29486 2.94126 -4.49403
thorax 0.719287 1.37412 1.87205
lowerneck -25.6539 4.75645 5.23417
upperneck 20.258 2.83105 7.71507
head 10.7783 2.79546 2.44884
rclavicle -1.59028e-014 4.13472e-014
rhumerus -57.9366 2.90336 -86.4398
rradius 50.1525
rwrist -6.77555
rhand -6.47139 -33.4099
rfingers 7.12502
rthumb 19.3792 -62.4642
lclavicle -1.59028e-014 4.13472e-014
lhumerus -33.2214 -24.902 84.4128
lradius 47.857
lwrist 4.54384
lhand -19.7802 -26.5397
lfingers 7.12502
lthumb 6.55197 3.33894
rfemur 2.40575 -11.5646 10.8595
rtibia 7.92869
rfoot -13.1422 -9.46897
rtoes 12.3886
lfemur 6.84549 0.841255 -16.2813
ltibia 9.25472
lfoot -19.0502 10.2371
ltoes -8.80334
351
root -19.3989 17.2293 -1.0115 -11.6282 75.4514 -14.4369
lowerback 8.281 2.37071 -12.3078
upperback 5.3294 2.62263 -4.42229
thorax 0.686683 1.21411 2.03835
lowerneck -25.4869 4.70144 4.99373
upperneck 20.2786 2.80283 7.9567
head 10.7489 2.79462 2.56576
rclavicle 1.43125e-014 9.85972e-014
rhumerus -58.1678 2.67849 -86.2468
rradius 49.8521
rwrist -6.47678
rhand -6.10484 -33.4654
rfingers 7.12502
rthumb 19.7316 -62.4839
lclavicle 1.43125e-014 9.85972e-014
lhumerus -32.491 -25.314 84.8968
lradius 48.956
lwrist 4.85032
lhand -20.9954 -28.7508
lfingers 7.12502
lthumb 5.37878 1.16089
rfemur 2.73983 -11.4535 10.5912
rtibia 7.56104
rfoot -13.524 -9.76122
rtoes 13.4431
lfemur 7.27578 0.520749 -16.6029
ltibia 9.16152
lfoot -18.9959 9.90598
ltoes -9.55253
